<svg aria-hidden="true" style="position: absolute; width: 0; height: 0; overflow: hidden;" version="1.1" xmlns="http://www.w3.org/2000/svg" xmlns:xlink="http://www.w3.org/1999/xlink">
<defs>
<symbol id="icon-sec" viewBox="0 0 32 32">
<path d="M18.047 11.297c0.294-0.698 0.485-1.507 0.531-2.355l0.001-0.018c0.008-0.128 0.012-0.277 0.012-0.427 0-1.742-0.589-3.348-1.579-4.627l0.013 0.017c-0.538-0.708-1.201-1.29-1.962-1.721l-0.032-0.017c-0.585-0.339-1.285-0.543-2.032-0.557l-0.004-0c-0.224 0.003-0.438 0.041-0.639 0.107l0.015-0.004c-0.136 0.042-0.209 0.067-0.209 0.067s0.018 0.073 0.045 0.212c0.029 0.127 0.033 0.351 0.053 0.557 0.001 0.050 0.001 0.109 0.001 0.169 0 0.506-0.030 1.004-0.087 1.495l0.006-0.059c-0.035 0.318-0.055 0.685-0.055 1.058 0 1.017 0.149 1.998 0.427 2.924l-0.019-0.072c0.23 0.754 0.522 1.407 0.882 2.016l-0.023-0.043c0.374 0.644 0.779 1.2 1.232 1.712l-0.010-0.011c0.397 0.436 1.291 1.459 1.616 1.713 0.084-0.512 0.144-1.122 0.166-1.741l0.001-0.026c0.034-0.424 0.006-0.841 0-1.259s-0.082-0.817-0.117-1.211c-0.070-0.387-0.166-0.757-0.242-1.114q-0.188-0.509-0.349-0.963c-0.152-0.278-0.291-0.533-0.413-0.763-0.117-0.204-0.246-0.38-0.392-0.541l0.003 0.003c-0.233-0.297-0.367-0.46-0.367-0.46s0.146 0.151 0.398 0.43c0.16 0.155 0.303 0.325 0.427 0.509l0.007 0.011c0.142 0.224 0.303 0.472 0.476 0.745 0.133 0.297 0.277 0.617 0.43 0.956 0.105 0.357 0.23 0.732 0.332 1.126 0.066 0.399 0.174 0.811 0.212 1.235s0.099 0.86 0.096 1.296c0.019 0.49 0.011 0.981-0.012 1.459 0.043-0.039 0.082-0.078 0.12-0.12l0.001-0.001c0.416-0.489 0.765-1.053 1.023-1.665l0.016-0.042zM14.18 14.898c0.065 0.109 0.121 0.206 0.182 0.315-3.269 0.643-5.877 2.956-6.928 5.995l-0.019 0.064 0.216 0.024c0.511 0.033 0.983 0.102 1.443 0.205l-0.062-0.012c0.014-0.221 0.094-0.421 0.219-0.584l-0.002 0.003c0.484-0.64 1.243-1.049 2.098-1.049 0.028 0 0.057 0.001 0.085 0.001l-0.004-0c0.15-0.006 0.325-0.009 0.502-0.009 1.338 0 2.635 0.18 3.866 0.517l-0.102-0.024c0.298 0.093 0.64 0.147 0.995 0.147 0.492 0 0.959-0.103 1.383-0.288l-0.022 0.009c2.3-0.92 4.32-0.835 5.952 0.23 0.202 0.133 0.412 0.273 0.624 0.418-1.189-2.974-3.808-5.147-6.982-5.689l-0.054-0.008c0.088-0.151 0.172-0.309 0.269-0.466 0.116-0.178 0.202-0.388 0.244-0.613l0.002-0.011c-0.006-0.047-0.010-0.102-0.010-0.158 0-0.004 0-0.008 0-0.012v0.001c-0.328 0.412-0.622 0.829-0.882 1.223-0.16-0.018-0.324-0.024-0.484-0.036 0.084-0.617 0.153-1.277 0.186-1.967-0.049 0.057-0.1 0.108-0.154 0.156l-0.002 0.001c-0.148 0.242-0.254 0.525-0.301 0.829l-0.002 0.013c-0.057 0.321-0.121 0.629-0.185 0.932-0.057 0-0.11-0.012-0.166-0.012-0.487 0.001-0.965 0.038-1.432 0.109l0.053-0.007c-0.23-0.339-0.478-0.69-0.758-1.041 0 0.003 0 0.007 0 0.010 0 0.054-0.004 0.107-0.011 0.159l0.001-0.006c0.043 0.238 0.129 0.449 0.25 0.636l-0.004-0.007zM19.488 12.38c0.235-0.224 0.501-0.406 0.737-0.599 0.254-0.176 0.513-0.327 0.749-0.478q0.387-0.172 0.722-0.327c0.235-0.073 0.452-0.133 0.644-0.188 0.149-0.045 0.322-0.076 0.501-0.085l0.005-0 0.443-0.048s-0.16 0.030-0.439 0.079c-0.184 0.025-0.349 0.068-0.507 0.126l0.016-0.005c-0.182 0.067-0.391 0.145-0.616 0.224-0.209 0.115-0.437 0.242-0.677 0.375-0.223 0.163-0.461 0.327-0.692 0.514-0.219 0.206-0.461 0.399-0.671 0.636-0.216 0.22-0.422 0.453-0.615 0.696l-0.014 0.018c-0.263 0.32-0.522 0.675-0.76 1.045l-0.027 0.044c0.314 0.012 1.332-0.121 1.775-0.176 0.577-0.071 1.099-0.196 1.597-0.373l-0.052 0.016c0.563-0.193 1.049-0.428 1.5-0.713l-0.029 0.017c0.854-0.548 1.569-1.232 2.135-2.029l0.016-0.024c0.247-0.356 0.493-0.665 0.758-0.958l-0.007 0.008c0.113-0.109 0.227-0.236 0.308-0.297s0.131-0.091 0.131-0.091-0.029-0.055-0.084-0.151c-0.086-0.14-0.188-0.259-0.305-0.362l-0.002-0.002c-0.396-0.338-0.882-0.582-1.417-0.692l-0.021-0.004c-0.305-0.068-0.654-0.107-1.013-0.107-0.349 0-0.689 0.037-1.016 0.107l0.032-0.006c-1.999 0.41-3.594 1.819-4.261 3.671l-0.012 0.040c-0.156 0.445-0.25 0.958-0.257 1.492l-0 0.003c0 0.042 0.005 0.085 0.008 0.127 0.227-0.284 0.466-0.563 0.721-0.841 0.21-0.242 0.462-0.46 0.695-0.684zM6.031 10.377c0.257 0.285 0.503 0.595 0.73 0.919l0.021 0.031c0.584 0.819 1.299 1.502 2.121 2.034l0.030 0.018c0.423 0.268 0.909 0.504 1.423 0.681l0.050 0.015c0.446 0.161 0.967 0.286 1.507 0.354l0.036 0.004c0.446 0.055 1.463 0.188 1.775 0.176-0.263-0.417-0.523-0.774-0.802-1.114l0.015 0.019c-0.191-0.254-0.417-0.478-0.627-0.714s-0.454-0.424-0.671-0.629c-0.233-0.188-0.473-0.351-0.694-0.514-0.239-0.133-0.468-0.26-0.677-0.375-0.226-0.085-0.433-0.158-0.616-0.23-0.14-0.049-0.307-0.089-0.478-0.113l-0.014-0.002c-0.279-0.048-0.437-0.079-0.437-0.079l0.442 0.048c0.185 0.010 0.358 0.038 0.524 0.083l-0.018-0.004c0.191 0.055 0.406 0.121 0.642 0.188 0.225 0.103 0.466 0.218 0.723 0.333 0.237 0.151 0.494 0.303 0.749 0.478 0.237 0.194 0.502 0.375 0.737 0.599s0.484 0.436 0.699 0.684c0.255 0.273 0.494 0.557 0.721 0.841 0-0.042 0.010-0.085 0.008-0.133-0.007-0.535-0.101-1.046-0.267-1.523l0.010 0.034c-0.213-0.617-0.512-1.151-0.887-1.621l0.008 0.011c-0.829-1.060-2.007-1.815-3.358-2.094l-0.037-0.006c-0.3-0.066-0.645-0.104-0.999-0.104s-0.699 0.038-1.031 0.11l0.032-0.006c-0.556 0.119-1.041 0.365-1.443 0.706l0.005-0.004c-0.119 0.104-0.221 0.224-0.303 0.357l-0.004 0.007c-0.054 0.097-0.084 0.145-0.084 0.145s0.045 0.036 0.13 0.097 0.194 0.188 0.307 0.297zM28.389 25.564c-1.441-1.823-3.157-3.352-5.101-4.546l-0.084-0.048c-1.574-1.023-3.366-0.805-5.035-0.133-0.511 0.219-1.105 0.347-1.729 0.347-0.46 0-0.903-0.069-1.321-0.198l0.032 0.008c-1.048-0.286-2.251-0.45-3.492-0.45-0.167 0-0.334 0.003-0.5 0.009l0.024-0.001c-0.024-0.001-0.051-0.002-0.079-0.002-0.534 0-1.008 0.253-1.31 0.646l-0.003 0.004c-0.191 0.254 1.372 1.301 2.712 1.301-0.249 0.496-4.581-0.557-5.158-0.514l-3.277-0.418c-1.165-0.097-1.163-0.533-2.309 0.109-0.034 0.016-0.075 0.025-0.117 0.025-0.009 0-0.018-0-0.027-0.001l0.001 0c-0.053-0.007-0.114-0.011-0.176-0.011-0.481 0-0.907 0.234-1.172 0.594l-0.003 0.004c-0.1 0.13-0.161 0.296-0.161 0.475 0 0.127 0.030 0.247 0.084 0.352l-0.002-0.005c0.141 0.192 0.366 0.315 0.62 0.315 0.010 0 0.020-0 0.029-0.001l-0.001 0c1.107 0.518 2.414 0.983 3.771 1.323l0.154 0.033c1.413 0.351 2.791 0.775 4.202 1.096 0.637 0.101 1.209 0.285 1.739 0.543l-0.037-0.016c0.89 0.493 1.951 0.782 3.080 0.782 0.177 0 0.353-0.007 0.527-0.021l-0.023 0.001c1.45-0.067 2.903-0.006 4.358-0.018 0.099-0.006 0.215-0.009 0.332-0.009 2.351 0 4.396 1.307 5.449 3.233l0.016 0.032 8.201-0.018c-1.791-2.094-2.581-2.603-4.215-4.825z"></path>
</symbol>
<symbol id="icon-thr" viewBox="0 0 32 32">
<path d="M24.334 22.327c0.386 0.024 0.773 0.054 1.154 0.066-1.948 2.898-5.121 4.843-8.76 5.091l-0.035 0.002c0.181-0.349 0.361-0.71 0.533-1.071 0.99-0.123 1.89-0.37 2.731-0.729l-0.066 0.025c0.010-0.014 0.018-0.030 0.023-0.047l0-0.001c0.031-0.086 0.075-0.16 0.129-0.224l-0.001 0.001-0.051-0.126 0.111-0.157c0.062-0.102 0.13-0.191 0.205-0.272l-0.001 0.001c0.079-0.060 0.74-0.632 0.884-0.74 0.125-0.096 0.673-0.512 0.913-0.704 0.032-0.024 0.060-0.054 0.081-0.066 0.206-0.209 0.393-0.437 0.557-0.681l0.011-0.017c0.073-0.133 0.145-0.292 0.205-0.456l0.008-0.025c0.457 0.054 0.915 0.096 1.367 0.132zM13.13 23.103c-0.043-0.006 0.013 0.024 0.049 0.042-0.007-0.022-0.026-0.039-0.049-0.042l-0-0zM21.731 22.296c0.114 0.012 0.265 0 0.377 0h0.034c0.143-0.016 0.272-0.068 0.381-0.146l-0.002 0.002 0.013-0.006-0.421-0.054c-0.14-0.024-0.28-0.042-0.421-0.060 0.068 0.024 0.12 0.080 0.138 0.149l0 0.002c-0.082 0.030-0.224 0.096-0.099 0.114zM13.183 23.145s0 0 0 0.006c0.040 0.018 0.027 0.006-0.002-0.006zM16.746 14.628c0.006 0.005 0.012 0.011 0.017 0.018l0 0c0.007-0.018-0.019-0.018-0.019-0.018zM20.551 17.138h-0.024l-0.022 0.090c-0.101 0.373-0.202 0.746-0.309 1.12 0.087 0 0.167 0.006 0.167 0.006 0.061-0.034 0.105-0.092 0.12-0.161l0-0.002c0.025-0.099 0.057-0.185 0.099-0.266l-0.003 0.007s0.025 0.006 0.067 0.012c0.035-0.059 0.057-0.129 0.060-0.204l0-0.001c-0.018-0.115-0.045-0.216-0.079-0.313l0.004 0.012c0.008-0.121 0.021-0.23 0.039-0.338l-0.003 0.019zM20.049 18.847l-0.051 0.169 0.078-0.012s0.020 0.054 0.048 0.126c0.010-0.020 0.021-0.044 0.029-0.069l0.001-0.004c-0.003-0.059-0.013-0.115-0.028-0.168l0.001 0.005c-0.019-0.026-0.048-0.044-0.081-0.048l-0.001-0zM21.035 15.223l-0.024-0.012c-0.055 0.229-0.107 0.457-0.165 0.68 0.033 0.027 0.075 0.043 0.121 0.043 0.018 0 0.035-0.002 0.051-0.007l-0.001 0c0.066 0.008 0.143 0.012 0.221 0.012 0.007 0 0.014-0 0.021-0h-0.001c0.17 0 0.197 0.024 0.227-0.048s0.039 0.036 0.039-0.15c0-0.005 0-0.010 0-0.016 0-0.123-0.058-0.232-0.148-0.303l-0.001-0.001c-0.098-0.078-0.211-0.144-0.331-0.195l-0.009-0.004zM31.866 20.28c-0.508 1.902-6.031 2.131-13.038 0.728-2.294 6.784-5.251 11.467-7.146 10.956-1.195-0.319-1.726-2.643-1.606-6.074 0.041 0.024 0.082 0.048 0.12 0.066-3.241-1.903-5.443-5.27-5.699-9.17l-0.002-0.034c0.333 0.175 0.671 0.343 1.015 0.512 1.227 0.584 2.515 1.126 3.821 1.607h-0.005l0.004 0.066-0.188 0.337-0.174 0.108 0.047 0.078 0.031 0.157h-0.096v0.349c0.048 0.096 0.142 0.164 0.252 0.174l0.001 0-0.079 0.048c0.023 0.078 0.055 0.146 0.097 0.207l-0.002-0.003c0.068 0.101 0.127 0.216 0.171 0.339l0.003 0.011c0.032 0.108 0.079 0.421 0.079 0.421s0.206 0.349 0.301 0.494c0.123 0.146 0.242 0.307 0.35 0.475l0.011 0.018c0.079 0.157 0.252 0.078 0.583 0.157 0.178 0.034 0.337 0.099 0.477 0.19l-0.005-0.003c0.084 0.070 0.177 0.139 0.274 0.203l0.012 0.007c0.112 0.044 0.242 0.070 0.377 0.070 0.050 0 0.099-0.003 0.148-0.010l-0.006 0.001c0.162 0.002 0.316 0.029 0.461 0.075l-0.011-0.003 0.057 0.006c0.191 0.014 0.361 0.094 0.489 0.217l-0-0 0.016 0.006c0.098 0.042 0.15 0.066 0.181 0.078 0.018 0.081 0.028 0.175 0.028 0.27 0 0 0 0 0 0v-0c0.016 0.078 0.127-0.018 0.206-0.018 0.057 0.017 0.105 0.048 0.142 0.090l0 0c0.022 0.013 0.047 0.025 0.074 0.035l0.003 0.001c0.141 0.048 0.173-0.048 0.173-0.048l0.159 0.193 0.126 0.169-0.126 0.307-0.11 0.108c0.005-0.039 0.007-0.084 0.007-0.129s-0.003-0.091-0.008-0.135l0.001 0.005c-0.017-0.108-0.11 0.054-0.11 0.054l-0.095 0.301 0.346 0.331 0.105 0.096 0.226 0.205 0.015 0.042 0.129 0.373-0.017 0.126 0.079 0.205c-0.053 0.023-0.117 0.044-0.182 0.059l-0.008 0.002c-0.028 0.011-0.060 0.017-0.094 0.018h-0c-0.062 0.018-0.113 0.056-0.147 0.107l-0.001 0.001c-0.030 0.037-0.060 0.078-0.086 0.122l-0.003 0.005c0.029 0.056 0.059 0.103 0.091 0.148l-0.002-0.003c0.032 0.049 0.071 0.091 0.115 0.126l0.001 0.001c0.022 0.018 0.042 0.024 0.060 0.042 0.019 0.001 0.036 0.006 0.052 0.012l-0.001-0c-0.004 0.006-0.008 0.012-0.011 0.018v0l-0.047 0.078c-0.137 0.241-0.309 0.53-0.508 0.843-1.247-0.252-2.355-0.667-3.371-1.228l0.060 0.030c0 0.006 0.004 0.006 0.006 0.006 0.031 2.071 0.418 3.419 1.175 3.618 1.434 0.385 3.761-3.443 5.681-9.047-0.808-0.181-1.625-0.379-2.46-0.608-8.789-2.36-15.431-6.098-14.83-8.343 0.321-1.198 2.633-1.734 6.057-1.613-0.040 0.072-0.077 0.138-0.114 0.205 2.008-3.501 5.723-5.821 9.981-5.821 0.018 0 0.037 0 0.055 0h-0.211c1.608-3.034 3.226-4.774 4.42-4.454 2.241 0.602 2.149 8.235-0.206 17.047-0.22 0.837-0.457 1.649-0.701 2.444 5.8 1.132 10.268 1.029 10.659-0.409 0.202-0.758-0.766-1.764-2.542-2.829v-0.012c-0.032 1.253-0.259 2.443-0.651 3.554l0.025-0.081c-0.367 0.018-0.704 0.024-0.976 0.024v0c-0.222 0-0.397-0.006-0.5-0.012-0.301-0.012-0.597-0.024-0.898-0.042 0.037-0.106 0.075-0.242 0.104-0.38l0.004-0.024c0.020-0.094 0.043-0.174 0.073-0.252l-0.004 0.011-0.353-0.084-0.041-0.229-0.149-0.030-0.137 0.265c-0.105 0.18-0.295 0.301-0.513 0.307l-0.001 0 0.039-0.187c-0.018-0.003-0.039-0.005-0.061-0.005-0.051 0-0.1 0.011-0.144 0.030l0.002-0.001-0.015-0.175c-0.031-0.079-0.082-0.144-0.147-0.192l-0.001-0.001c-0.073-0.040-0.134-0.095-0.179-0.161l-0.001-0.002c-0.032-0.047-0.059-0.101-0.079-0.158l-0.002-0.005c-0.003-0.005-0.007-0.009-0.012-0.012l-0-0 0.020-0.096s0.128-0.138 0.234-0.265 0.142 0.126 0.252 0.217c0.048 0.045 0.079 0.108 0.079 0.179 0 0.020-0.002 0.039-0.007 0.057l0-0.002c0.047 0.022 0.103 0.036 0.161 0.036h0c0.001-0 0.002-0 0.004-0 0.052 0 0.098 0.029 0.122 0.072l0 0.001 0.181 0.066 0.181-0.199c0.021-0.072 0.085-0.123 0.161-0.126h0c0.126 0 0.020 0.163 0.020 0.259s0.090 0 0.34-0.108c0.144-0.068 0.268-0.142 0.383-0.227l-0.006 0.004c0.085-0.026 0.154-0.082 0.196-0.155l0.001-0.002c0.060-0.047 0.113-0.094 0.163-0.144v0l0.197 0.126 0.218-0.036 0.217-0.126v0.163c-0.047 0.053-0.075 0.123-0.075 0.199 0 0.039 0.007 0.076 0.021 0.11l-0.001-0.002c0.091 0.126 0.107 0.090 0.055 0.253-0.019 0.037-0.030 0.080-0.030 0.126s0.011 0.090 0.030 0.128l-0.001-0.002c0.010 0.034 0.017 0.073 0.019 0.113l0 0.001c0.291-0.919 0.459-1.975 0.459-3.070 0-3.403-1.619-6.429-4.128-8.348l-0.025-0.019c0.032-0.403 0.056-0.801 0.073-1.198 3.094 2.097 5.1 5.595 5.1 9.563 0 0.005 0 0.010 0 0.015v-0.001c0-0.054 0-0.108 0-0.163 3.019 1.613 4.758 3.232 4.438 4.43zM18.114 7.771s0.114-0.066 0.17-0.090 0-0.030-0.056-0.072c-0.011-0.004-0.024-0.006-0.038-0.006-0.037 0-0.069 0.016-0.091 0.042l-0 0c-0.026 0.029-0.048 0.063-0.063 0.1l-0.001 0.002c0 0.006-0.006 0.012-0.008 0.018-0.031 0.036-0.065-0.060-0.072-0.114-0.037-0.019-0.081-0.030-0.128-0.030-0.029 0-0.057 0.004-0.084 0.012l0.002-0.001c0.018 0.029 0.035 0.063 0.047 0.098l0.001 0.004s0.017 0.102 0.017 0.138c-0.001 0.007-0.001 0.016-0.001 0.024 0 0.050 0.012 0.098 0.034 0.14l-0.001-0.002c0.037 0.047 0.076 0.088 0.119 0.125l0.001 0.001 0.065-0.042 0.023-0.018 0.098-0.163 0.081-0.072zM16.823 7.055s0.013-0.114 0.076-0.102c0.061-0.030 0.107-0.083 0.126-0.149l0-0.002c-0.022-0.049-0.063-0.085-0.112-0.102l-0.001-0c-0.064 0-0.202 0.018-0.202 0.018l-0.039-0.078c-0.011-0.001-0.024-0.002-0.037-0.002-0.051 0-0.099 0.009-0.143 0.027l0.003-0.001c-0.013 0.007-0.028 0.011-0.044 0.011-0.039 0-0.072-0.025-0.084-0.059l-0-0.001-0.013-0.157-0.14 0.042-0.101-0.090s-0.037-0.078 0.025-0.078c0.055 0.001 0.107 0.006 0.158 0.013l-0.007-0.001 0.127-0.090-0.051-0.096 0.088-0.102c-0.037-0.025-0.082-0.040-0.131-0.040-0.030 0-0.060 0.006-0.086 0.016l0.002-0.001c-0.049 0.050-0.11 0.089-0.177 0.113l-0.003 0.001c0-0.001 0-0.002 0-0.004 0-0.053-0.023-0.101-0.060-0.135l-0-0c-0.075-0.102 0.037-0.157-0.128-0.114-0.085 0.017-0.16 0.053-0.224 0.103l0.001-0.001c-0.021 0.014-0.040 0.030-0.056 0.048l-0 0c-0.076 0.010-0.142 0.047-0.187 0.102l-0 0c0.055 0.057 0.13 0.093 0.214 0.096l0.001 0c0.008-0.011 0.018-0.021 0.029-0.030l0-0c0.033-0.036 0.094-0.090 0.137-0.042 0.041 0.041 0.078 0.087 0.11 0.135l0.002 0.003-0.241 0.126-0.009-0.006-0.12-0.096h-0.241l-0.114 0.054-0.228 0.024c0.018 0.051 0.032 0.11 0.038 0.171l0 0.003c-0.016 0.056-0.052 0.103-0.1 0.132l-0.001 0.001-0.135-0.012-0.017-0.006-0.14 0.102c-0.079 0.005-0.153 0.027-0.218 0.062l0.003-0.001c-0.007 0.010-0.019 0.017-0.032 0.018h-0c-0.060 0.018-0.12-0.024-0.12 0.060 0 0.102 0.012 0.151-0.060 0.169-0.022 0.002-0.043 0.006-0.062 0.013l0.002-0c-0.081 0.018-0.181 0.036-0.181 0.036-0.054 0.027-0.1 0.062-0.14 0.102l-0 0c-0.058 0.044-0.125 0.079-0.198 0.101l-0.004 0.001-0.020-0.006-0.232-0.048-0.329 0.138-0.009 0.024-0.067 0.157-0.216 0.024c-0.078 0.035-0.142 0.089-0.189 0.155l-0.001 0.001c-0.013 0.034-0.038 0.062-0.070 0.078l-0.001 0c-0.016 0.014-0.035 0.026-0.054 0.035l-0.002 0.001c-0.139 0.042-0.253 0.129-0.328 0.245l-0.001 0.002-0.052 0.114 0.090 0.132-0.203 0.024 0.024 0.096c0.101 0.102 0.166 0.156 0.228 0.102 0.024-0.047 0.058-0.085 0.099-0.114l0.001-0.001c0.045-0.018 0.125-0.042 0.195-0.066 0.051-0.018 0.096-0.036 0.12-0.048 0.069-0.048 0.149-0.087 0.235-0.113l0.006-0.002c0.054-0.001 0.106-0.005 0.158-0.013l-0.006 0.001 0.030-0.024 0.173-0.138 0.203 0.090 0.166-0.024c0.001 0.028 0.012 0.053 0.030 0.072l-0-0c0.013 0.012 0.029 0.021 0.047 0.024l0.001 0c0.057 0.015 0.121 0.024 0.188 0.024h0c0.036-0.047 0.090-0.078 0.151-0.084l0.001-0h0.226l0.026-0.114 0.143 0.066 0.020 0.006 0.114 0.090s-0.051 0.012 0.076 0.066c0.032 0.012 0.068 0.019 0.106 0.019 0.031 0 0.062-0.005 0.090-0.013l-0.002 0.001c0.018-0.008 0.034-0.016 0.049-0.025l-0.002 0.001 0.216 0.054c0.003-0.014 0.005-0.031 0.005-0.048 0-0.060-0.021-0.114-0.056-0.157l0 0c-0.071-0.011-0.134-0.032-0.193-0.062l0.004 0.002 0.139-0.054 0.152-0.024 0.039 0.169 0.241-0.078-0.038-0.138 0.013-0.217 0.228 0.036 0.014 0.151c0.027 0.014 0.058 0.025 0.092 0.030l0.002 0c0.054 0.018 0.109 0.018 0.109-0.030 0-0.090-0.051-0.151 0.013-0.151 0.071-0.007 0.136-0.019 0.198-0.038l-0.007 0.002 0.060-0.090 0.090-0.205 0.1 0.151 0.14-0.090-0.026-0.126 0.301-0.138s0.181-0.024 0.256-0.024c0.005 0.001 0.011 0.001 0.016 0.001 0.031 0 0.060-0.009 0.083-0.025l-0.001 0s0.051-0.102-0.025-0.102c-0.050-0.006-0.094-0.028-0.128-0.060l0 0zM13.796 11.973l-0.126 0.060 0.292 0.138 0.143 0.006 0.107 0.006c0.044-0.073 0.075-0.158 0.090-0.249l0.001-0.004c-0-0.002-0-0.004-0-0.007 0-0.038 0.017-0.072 0.043-0.095l0-0c0.026-0.018 0.065-0.036 0.12-0.072 0.044-0.019 0.074-0.061 0.074-0.111 0-0.026-0.008-0.050-0.022-0.070l0 0c-0.031-0.031-0.074-0.050-0.121-0.050-0.018 0-0.036 0.003-0.053 0.008l0.001-0c-0.001-0-0.001-0-0.002-0-0.010 0-0.020 0.002-0.029 0.006l0-0-0.21 0.102-0.019 0.012-0.101-0.132-0.14 0.042-0.139 0.138c0.003-0 0.006-0 0.010-0 0.029 0 0.056 0.004 0.082 0.013l-0.002-0.001c0.021-0.004 0.045-0.006 0.070-0.006s0.049 0.002 0.072 0.007l-0.002-0c0.101 0.018-0.025 0.102-0.025 0.102l-0.202 0.054zM14.278 8.999l-0.173 0.012h-0.005c-0.008 0.040-0.013 0.086-0.013 0.133 0 0.055 0.006 0.109 0.018 0.161l-0.001-0.005c0 0.006 0.005 0.012 0.007 0.018 0.046 0.088 0.131 0.15 0.232 0.162l0.001 0c0.017 0.002 0.036 0.004 0.056 0.004 0.041 0 0.082-0.006 0.12-0.016l-0.003 0.001c0.113-0.024 0.147-0.030 0.153-0.030l-0.017 0.006c0.006-0.001 0.011-0.003 0.015-0.006l-0 0 0.078-0.030 0.099-0.042c0.075-0.040 0.133-0.105 0.162-0.184l0.001-0.002c0-0.090-0.14-0.060-0.253-0.060h-0.008c-0.104-0.006-0.095-0.018-0.143-0.144s-0.051 0.078-0.051 0.078c-0.049-0.026-0.086-0.071-0.1-0.125l-0-0.001c-0.028-0.059-0.050-0.128-0.063-0.2l-0.001-0.005-0.045 0.024-0.143 0.078 0.037 0.072zM14.15 12.641s0.051 0.066 0.128 0.169c0.032 0.042 0.053 0.030 0.067 0 0.007-0.044 0.033-0.080 0.069-0.102l0.001-0c0.060 0 0.014 0.102 0.090 0.090 0.069-0.008 0.149-0.012 0.231-0.012 0.004 0 0.007 0 0.011 0h0.004l0.109 0.126c0.059-0.028 0.106-0.071 0.139-0.125l0.001-0.001c0.013-0.066 0.013-0.066 0.114-0.066s0.063-0.012 0.19-0.114-0.039-0.187-0.14-0.241-0.014-0.138-0.014-0.138l0.014-0.181c-0.001-0.054-0.007-0.106-0.015-0.157l0.001 0.006c-0.013-0.090-0.038-0.15-0.051-0.241-0.004-0.039-0.037-0.070-0.077-0.070-0.008 0-0.017 0.001-0.024 0.004l0.001-0v-0.114c0.005 0 0.011 0 0.017 0 0.084 0 0.165-0.009 0.244-0.026l-0.008 0.001c0.060-0.024 0-0.15 0-0.15s-0.15-0.060-0.265-0.102-0.039-0.060 0.152-0.072 0.025-0.102 0.025-0.102l-0.152-0.090c-0.053 0.066-0.121 0.117-0.2 0.149l-0.003 0.001c-0.023 0.009-0.043 0.021-0.060 0.036l0-0c-0.020 0.044-0.039 0.096-0.053 0.15l-0.001 0.007v0.102l0.055 0.090 0.034 0.060c-0.010 0.042-0.021 0.078-0.035 0.113l0.002-0.005c-0.011 0.032-0.025 0.060-0.043 0.085l0.001-0.001c-0.009 0.018-0.014 0.040-0.014 0.063 0 0.038 0.015 0.073 0.039 0.1l-0-0c0 0.002 0 0.004 0 0.005 0 0.090-0.009 0.177-0.026 0.262l0.001-0.008c-0.025 0.084-0.217-0.078-0.217-0.078l-0.037 0.217h-0.176l0.025 0.114 0.043 0.030 0.070 0.060 0.075 0.114-0.144-0.054-0.069-0.024zM12.164 6.916l-0.216 0.229c0.071 0.015 0.152 0.024 0.236 0.024 0.006 0 0.013-0 0.019-0h-0.001c0.094-0.044 0.174-0.094 0.248-0.153l-0.003 0.002c0.077-0.054 0.154-0.102 0.211-0.138 0.042-0.042 0.101-0.068 0.165-0.068 0.009 0 0.018 0 0.026 0.001l-0.001-0 0.051 0.102-0.305 0.181 0.356-0.054 0.042-0.036 0.137-0.126 0.14-0.169 0.215 0.012 0.081-0.030 0.184-0.066c0.086-0.059 0.158-0.131 0.216-0.214l0.002-0.003c0.049-0.090 0.082-0.042 0.143-0.024 0.009 0.003 0.019 0.005 0.030 0.005s0.021-0.002 0.031-0.005l-0.001 0c0.1-0.024 0.051-0.114 0.051-0.205 0-0.042 0.060-0.048 0.132-0.048 0.019 0.003 0.041 0.005 0.064 0.005 0.048 0 0.094-0.008 0.137-0.024l-0.003 0.001c0.075-0.054-0.060-0.151-0.165-0.181l-0.033-0.006c-0.002 0-0.005 0-0.008 0-0.063 0-0.116-0.047-0.124-0.108l-0-0.001c-0.013-0.034-0.045-0.058-0.083-0.058-0.009 0-0.018 0.001-0.026 0.004l0.001-0c-0.053 0.001-0.103 0.016-0.145 0.043l0.001-0.001c-0.075 0.054-0.227 0.066-0.181-0.036 0.008-0.011 0.017-0.021 0.027-0.030l0-0c-0.464 0.095-0.857 0.205-1.24 0.339l0.065-0.020c0.088-0.006 0.126 0 0.181 0 0.076 0-0.076 0.090-0.076 0.090-0.112 0.037-0.208 0.082-0.299 0.136l0.007-0.004-0.007 0.006c-0.022 0.024-0.036 0.057-0.036 0.092 0 0.014 0.002 0.028 0.006 0.041l-0-0.001h0.030c0.058-0.001 0.113-0.006 0.167-0.013l-0.008 0.001c0.106-0.037 0.198-0.086 0.28-0.147l-0.003 0.002c0.030-0.019 0.065-0.037 0.101-0.053l0.004-0.002c0.043-0.015 0.079-0.031 0.113-0.050l-0.004 0.002c0.088-0.048 0.024 0.144 0.024 0.144l0.241-0.090 0.195-0.012h0.073l0.076-0.144-0.147-0.030-0.081-0.018 0.076-0.078h0.004c0.012-0 0.027-0 0.042-0 0.1 0 0.198 0.007 0.294 0.020l-0.011-0.001c0.077 0.006 0 0.096 0 0.096l-0.024 0.102-0.088 0.163c-0.060 0.010-0.13 0.016-0.201 0.018l-0.002 0h-0.009c-0.071 0.015-0.132 0.049-0.181 0.096l0-0-0.178 0.126h-0.255l-0.039 0.144-0.203-0.024c-0.015-0.044-0.028-0.097-0.037-0.151l-0.001-0.005c-0.014-0.090-0.101 0-0.101 0-0.020 0.085-0.063 0.159-0.12 0.217v0c-0.015 0.013-0.034 0.022-0.056 0.024l-0 0c-0.093 0.031-0.17 0.085-0.229 0.156l-0.001 0.001zM14.923 5.574c-0.109 0.006-0.217 0.018-0.325 0.030 0.017 0.009 0.038 0.015 0.059 0.018l0.001 0c0.075 0.012 0.013 0.036 0.013 0.096 0 0.042 0.019 0.060 0.081 0.072 0.032 0.006 0.075 0.012 0.137 0.018 0.178 0.024 0.060-0.048 0.037-0.199-0.003-0.011-0.005-0.023-0.005-0.036 0-0 0-0 0-0v0zM14.24 5.719c0.009-0.017 0.018-0.037 0.024-0.058l0.001-0.002c-0.019 0-0.036 0.006-0.055 0.006 0.014 0.014 0.024 0.033 0.028 0.054l0 0.001zM15.691 5.52c-0.013 0.025-0.021 0.054-0.021 0.085 0 0.006 0 0.012 0.001 0.018l-0-0.001c0.013 0.114 0.038 0 0.114-0.024 0.036-0.009 0.062-0.040 0.065-0.078v-0h-0.16zM8.268 8.885l0.16 0.012 0.202-0.126 0.203 0.060-0.114 0.054c-0.049 0.069-0.096 0.148-0.135 0.231l-0.004 0.009c0.065 0.041 0.145 0.066 0.23 0.066 0.025 0 0.050-0.002 0.073-0.006l-0.003 0c0.039-0.099 0.070-0.215 0.088-0.335l0.001-0.008c0.062-0.085 0.156-0.145 0.263-0.162l0.002-0 0.075-0.205 0.128 0.090c0.034-0.059 0.056-0.129 0.060-0.203l0-0.001c-0.067-0.049-0.15-0.078-0.241-0.078h-0l0.226-0.108 0.228 0.060-0.051 0.445h0.228l0.051 0.078c-0.108 0.064-0.233 0.123-0.365 0.17l-0.015 0.005c-0.081 0.041-0.149 0.098-0.202 0.167l-0.001 0.001-0.126 0.138c0.037 0.050 0.089 0.086 0.149 0.102l0.002 0c0.049 0.001 0.090 0.037 0.099 0.084l0 0.001c0.065-0.018 0.116-0.064 0.14-0.125l0.001-0.001c0-0.002 0-0.004 0-0.007 0-0.038-0.020-0.071-0.051-0.089l-0-0s0.113-0.132 0.19-0.217 0.482-0.271 0.557-0.355c0.026-0.021 0.042-0.053 0.042-0.089 0-0.023-0.007-0.044-0.018-0.062l0 0 0.19-0.12s0.051-0.241 0.076-0.301c0.141-0.116 0.299-0.225 0.464-0.322l0.017-0.009c0.129-0.108 0.287-0.185 0.462-0.216l0.006-0.001c0.255-0.060 0.077-0.090 0.060-0.163s-0.215 0.096-0.215 0.096l-0.301-0.090c0.096-0.006 0.183-0.042 0.254-0.097l-0.001 0.001c0.051-0.041 0.117-0.066 0.188-0.066 0 0 0.001 0 0.001 0h-0c0.090-0.036 0.063-0.072 0.063-0.072h0.14c0.065-0.065 0.125-0.136 0.177-0.212l0.003-0.005c0.060-0.102 0.203-0.295 0.203-0.295s-0.316 0.181-0.38 0.205c-0.011 0-0.023 0.001-0.035 0.001-0.073 0-0.144-0.009-0.212-0.026l0.006 0.001c-0.123 0.057-0.227 0.115-0.326 0.18l0.009-0.006c-0.127 0.054-0.266 0.132-0.266 0.132l-0.188-0.042-0.152 0.066-0.367 0.151c0.061-0.045 0.132-0.091 0.205-0.133l0.011-0.006 0.301-0.181 0.241-0.060 0.020-0.126c-0.097 0.054-0.193 0.102-0.291 0.157-0.934 0.554-1.736 1.205-2.432 1.955l-0.006 0.007zM17.8 19.22c0.255-0.813 0.501-1.655 0.731-2.522 2.052-7.669 2.287-14.272 0.533-14.742-0.757-0.205-1.76 0.764-2.821 2.546h-0.034c1.258 0.031 2.452 0.26 3.567 0.657l-0.080-0.025c0.021 0.367 0.023 0.704 0.022 0.975v0c0 0.223-0.004 0.403-0.008 0.506-0.034 0.963-0.12 1.95-0.249 2.944-0.043-0.017-0.093-0.029-0.145-0.036l-0.003-0c-0.021-0.003-0.045-0.005-0.069-0.005s-0.048 0.002-0.072 0.005l0.003-0c-0.058-0.048-0.11-0.101-0.154-0.16l-0.002-0.002c-0.069-0.090-0.167-0.155-0.28-0.18l-0.003-0.001c-0.158-0.054-0.146 0.060-0.146 0.060-0.083 0.054-0.185 0.086-0.295 0.086-0.015 0-0.029-0.001-0.043-0.002l0.002 0c-0.001 0-0.002-0-0.003-0-0.116 0-0.211 0.086-0.226 0.197l-0 0.001-0.136 0.114c-0.033 0.062-0.089 0.107-0.156 0.126l-0.002 0c-0.001 0-0.001 0-0.002 0-0.052 0-0.101 0.009-0.147 0.025l0.003-0.001c-0.020 0.070-0.035 0.152-0.041 0.236l-0 0.005c-0 0.049-0.037 0.089-0.084 0.096l-0.001 0c-0.069 0.012-0.13 0.029-0.188 0.050l0.007-0.002c-0.073 0.030-0.146 0.078-0.22 0.114-0.056 0.060-0.118 0.113-0.185 0.16l-0.004 0.003c-0.146 0.078-0.199 0.114-0.199 0.114l-0.199 0.042 0.104 0.102-0.157 0.030c-0.002 0.017-0.003 0.036-0.003 0.056 0 0.040 0.005 0.079 0.013 0.116l-0.001-0.003c0.044 0.052 0.108 0.084 0.181 0.084h0c-0.067 0.052-0.143 0.099-0.225 0.136l-0.007 0.003c-0.126 0.054-0.126 0.072-0.116 0.126 0.050 0.12 0.159 0.207 0.291 0.223l0.002 0c0.212 0.054 0.063-0.012 0.157-0.066 0.056-0.032 0.122-0.060 0.191-0.082l0.008-0.002c0.057 0.088 0.101 0.191 0.127 0.3l0.001 0.007c0 0.090-0.032 0.271-0.020 0.337s0.114-0.024 0.114-0.024l-0.094 0.108s0.020 0.187 0.020 0.241 0.187 0.018 0.187-0.030c0.044-0.090 0.135-0.151 0.24-0.151 0.007 0 0.014 0 0.022 0.001l-0.001-0c0.157-0.006 0.137-0.030 0.137-0.156 0.003-0.107 0.014-0.208 0.033-0.307l-0.002 0.012 0.181-0.048s0.102-0.078 0.17-0.144c0.015-0.014 0.029-0.030 0.040-0.047l0.001-0.001c0.022-0.030-0.004-0.066-0.041-0.096s-0.072-0.054-0.097-0.078c-0.047-0.083-0.074-0.182-0.074-0.288 0-0.013 0-0.026 0.001-0.039l-0 0.002c-0.001-0.010-0.001-0.022-0.001-0.034 0-0.037 0.005-0.073 0.014-0.107l-0.001 0.003c0.028-0.054 0.083-0.091 0.147-0.091 0.004 0 0.008 0 0.011 0l-0-0c0.001 0 0.002 0 0.003 0 0.006 0 0.012-0.002 0.016-0.006l-0 0c0.073-0.018 0.167-0.144 0.301-0.211s-0.073-0.072-0.073-0.072 0.022-0.114 0.042-0.211 0.293 0.030 0.293 0.030l0.105 0.126-0.126 0.096-0.144 0.217-0.209 0.277 0.168 0.439c0.070 0.037 0.153 0.059 0.24 0.060h0c0.101-0.014 0.19-0.055 0.263-0.115l-0.001 0.001c0.089-0.042 0.192-0.073 0.3-0.090l0.006-0.001-0.049 0.295c-0.080-0.003-0.156-0.012-0.23-0.026l0.009 0.002c-0.14 0.026-0.259 0.058-0.376 0.096l0.020-0.006c-0.149 0.018-0.060 0.12-0.060 0.193 0.048 0.078 0.12 0.137 0.206 0.168l0.003 0.001-0.163 0.102c-0.039-0.086-0.123-0.146-0.221-0.15l-0.001-0c-0.089 0.070-0.153 0.168-0.18 0.279l-0.001 0.003c-0.009 0.028-0.014 0.060-0.014 0.094 0 0.079 0.028 0.151 0.074 0.208l-0-0.001c-0.076 0.011-0.145 0.034-0.208 0.068l0.003-0.002-0.034 0.018c-0.103 0.072-0.133 0.018-0.133 0.018-0.030-0.046-0.077-0.079-0.132-0.090l-0.001-0c-0.098 0.042-0.181 0.091-0.259 0.147l0.004-0.003c-0.049 0.007-0.106 0.012-0.163 0.012s-0.114-0.004-0.169-0.012l0.006 0.001-0.164-0.175-0.136 0.132c-0.077-0.023-0.142-0.064-0.193-0.12l-0-0c-0.071-0.090 0-0.072-0.015-0.144s-0.044-0.078-0.044-0.078l0.074-0.114 0.193-0.12c0.007-0.036 0.011-0.078 0.011-0.121 0-0.096-0.021-0.187-0.058-0.268l0.002 0.004c-0.090-0.12-0.090 0.12-0.090 0.12l-0.297 0.193 0.016 0.397-0.060 0.181-0.116-0.030-0.074 0.090c-0.051-0.029-0.114-0.059-0.179-0.086l-0.013-0.005c-0.129 0.007-0.245 0.063-0.328 0.15l-0 0-0.027 0.066-0.048 0.108-0.163-0.030-0.089 0.108h-0.181c-0.076 0-0.030 0.132-0.030 0.132-0.030 0.035-0.066 0.063-0.107 0.083l-0.002 0.001-0.026-0.036c-0.014-0.004-0.029-0.007-0.046-0.007-0.045 0-0.086 0.019-0.116 0.049l-0 0c-0.027 0.017-0.059 0.032-0.093 0.041l-0.003 0.001-0.079 0.012-0.076-0.193s-0.054-0.102-0.107-0.024c-0.023 0.026-0.037 0.061-0.037 0.099 0 0.012 0.001 0.023 0.004 0.034l-0-0.001 0.022 0.132-0.108 0.012-0.021-0.012-0.054-0.012-0.187-0.114-0.028-0.018s-0.129-0.018-0.106 0.066 0.129 0.193 0.129 0.247c0.001 0.007 0.003 0.013 0.007 0.018l-0-0c0.073 0.012 0.138 0.044 0.189 0.091l-0-0c-0.015 0.068-0.050 0.126-0.099 0.168l-0 0c0.046 0.040 0.075 0.098 0.076 0.162v0c-0.002 0.108-0.018 0.211-0.047 0.309l0.002-0.008c-0.021 0.060-0.075 0.042-0.097 0.108-0.008 0.018-0.016 0.034-0.026 0.049l0.001-0.001c-0.025 0.043-0.052 0.081-0.082 0.115l0.001-0.001c-0.046 0.014-0.098 0.022-0.153 0.022-0.023 0-0.045-0.001-0.067-0.004l0.003 0c-0.057-0.044-0.121-0.084-0.189-0.118l-0.006-0.003c-0.008-0.003-0.017-0.005-0.027-0.005s-0.019 0.002-0.027 0.005l0.001-0c-0.012 0.004-0.025 0.006-0.040 0.006-0.041 0-0.077-0.019-0.1-0.048l-0-0c-0.075-0.058-0.161-0.108-0.252-0.148l-0.008-0.003c-0.055-0.021-0.1-0.059-0.129-0.107l-0.001-0.001s-0.017-0.012-0.040-0.024c-0.039-0.022-0.083-0.039-0.131-0.048l-0.003-0c-0.057 0.019-0.104 0.052-0.14 0.096l-0 0.001c0.006 0.029 0.009 0.062 0.009 0.096s-0.003 0.067-0.010 0.1l0.001-0.003c0.004 0.016 0.005 0.034 0.005 0.053 0 0.057-0.018 0.109-0.049 0.152l0.001-0.001c-0.064 0.048-0.076 0.012-0.087 0.102s0.043 0.042-0.043 0.126c-0.033 0.045-0.065 0.084-0.099 0.121l0.001-0.001c-0.008 0.002-0.016 0.006-0.021 0.012l-0 0c-0.073 0.024-0.132 0.071-0.173 0.131l-0.001 0.001c-0.047 0.073-0.075 0.163-0.075 0.258 0 0 0 0 0 0v-0c0.065 0.131 0.144 0.244 0.237 0.344l-0.001-0.001 0.034 0.012c0.049 0.007 0.088 0.043 0.098 0.090l0 0.001c0 0.078-0.089 0.108 0 0.163 0.035 0.030 0.066 0.062 0.095 0.095l0.001 0.001c0.099 0.035 0.217 0.064 0.339 0.083l0.011 0.001c0.177 0.036 0.353 0.066 0.353 0.066l0.12-0.084h0.205l0.054-0.187 0.163-0.006 0.011-0.175s-0.021-0.175 0.032-0.175c0.069-0.025 0.129-0.055 0.184-0.092l-0.003 0.002c0.075-0.048 0.144-0.096 0.144-0.096s0.041 0.006 0.097 0.018c0.031 0.007 0.066 0.012 0.102 0.012 0.045 0 0.088-0.006 0.129-0.018l-0.003 0.001c0.063-0.065 0.12-0.136 0.171-0.211l0.003-0.005c-0.007-0.030-0.011-0.064-0.011-0.099s0.004-0.069 0.011-0.102l-0.001 0.003c0.005-0.017 0.021-0.029 0.039-0.030h0c0.013-0.001 0.028-0.001 0.044-0.001 0.115 0 0.223 0.030 0.317 0.081l-0.003-0.002c0.078 0.073 0.178 0.122 0.289 0.138l0.003 0c0.081-0.027 0.151-0.066 0.212-0.115l-0.001 0.001 0.027-0.018c0.023-0.018 0.088-0.060 0.158-0.114 0.001 0.003 0.002 0.005 0.005 0.006l0 0c0.078 0.010 0.145 0.048 0.194 0.102l0 0c0.032 0.063 0.051 0.137 0.051 0.216 0 0.030-0.003 0.060-0.008 0.088l0-0.003c0.038 0.098 0.106 0.177 0.192 0.228l0.002 0.001c0.054 0.060 0.315 0.409 0.4 0.518s0.259 0.301 0.259 0.301l0.087 0.205-0.181 0.132c-0.096-0.005-0.186-0.016-0.274-0.032l0.013 0.002c-0.008-0.002-0.018-0.003-0.028-0.003-0.038 0-0.071 0.018-0.092 0.045l-0 0c-0.053-0.033-0.099-0.069-0.141-0.109l0.001 0c-0.098-0.084-0.031 0.012-0.151 0.078s0.151 0.163 0.218 0.217c0.069 0.063 0.132 0.13 0.189 0.201l0.003 0.003c0.043 0.054 0.152-0.018 0.152-0.108 0-0.058 0.004-0.114 0.012-0.169l-0.001 0.007h0.193l0.12-0.138 0.099-0.084 0.043-0.12-0.076-0.217c0.052-0.020 0.112-0.037 0.175-0.047l0.005-0.001c0.054 0.039 0.093 0.095 0.109 0.161l0 0.002 0.056 0.024c0-0.003 0-0.006 0-0.009 0-0.064-0.012-0.125-0.034-0.181l0.001 0.003c-0.061-0.067-0.128-0.126-0.201-0.178l-0.004-0.003c-0.099-0.039-0.181-0.079-0.261-0.125l0.009 0.005c-0.088-0.112-0.17-0.238-0.241-0.372l-0.007-0.014c-0.023-0.040-0.036-0.087-0.036-0.138 0-0.017 0.002-0.034 0.004-0.050l-0 0.002c-0.052-0.071-0.106-0.134-0.163-0.193l0 0c-0.020-0.043-0.032-0.094-0.032-0.148 0-0.014 0.001-0.027 0.002-0.040l-0 0.002 0.205-0.126c0.024-0.012 0.044-0.028 0.060-0.048l0-0c0.073 0.066 0.127 0.152 0.155 0.249l0.001 0.004c0.008 0.1 0.031 0.192 0.067 0.277l-0.002-0.006c0.082 0.087 0.196 0.143 0.323 0.15l0.001 0c0.174 0.030 0.12 0.15 0.12 0.15 0.078 0.091 0.14 0.2 0.179 0.318l0.002 0.007c0.020 0.132 0.020 0.193 0.032 0.355 0.030 0.128 0.078 0.24 0.142 0.341l-0.003-0.004c0.055 0.151 0.075 0.151 0.108 0.271 0.015 0.054 0.025 0.108 0.045 0.163-0.107 0.397-0.22 0.801-0.34 1.204-0.082 0.124-0.143 0.269-0.172 0.426l-0.001 0.007c-0.023 0.015-0.050 0.026-0.079 0.030l-0.001 0-0.225-0.054c-0.147-0.095-0.317-0.182-0.494-0.252l-0.020-0.007c-0.088-0.115-0.172-0.245-0.245-0.382l-0.008-0.016c-0.030-0.037-0.076-0.060-0.127-0.060-0.022 0-0.044 0.005-0.063 0.013l0.001-0c-0.143-0.023-0.27-0.071-0.384-0.141l0.005 0.003c-0.034-0.042-0.090-0.108-0.135-0.157s-0.071-0.084-0.071-0.084c0.022-0.021 0.045-0.041 0.069-0.059l0.002-0.001c0.042-0.041 0.092-0.073 0.147-0.095l0.003-0.001c0.079-0.018-0.031-0.175-0.127-0.331s0.253-0.211 0.237-0.289c-0.069-0.065-0.159-0.108-0.258-0.12l-0.002-0-0.008-0.006c-0.047-0.012-0.101-0.019-0.157-0.019s-0.11 0.007-0.162 0.020l0.005-0.001-0.301-0.060s-0.095 0.030-0.173 0.060c-0.011 0.004-0.024 0.006-0.038 0.006-0.024 0-0.046-0.007-0.065-0.018l0.001 0c-0.081-0.037-0.144-0.1-0.18-0.178l-0.001-0.002c-0.041-0.048-0.101-0.079-0.168-0.079-0.019 0-0.037 0.002-0.055 0.007l0.002-0c-0.046-0.003-0.089-0.016-0.127-0.037l0.002 0.001c-0.033-0.021-0.072-0.034-0.115-0.036l-0.001-0c-0.070 0.006-0.134 0.042-0.216 0.054-0.103 0.012-0.241 0.048-0.331 0.060-0.019 0-0.035 0.006-0.049 0.006-0.109 0.021-0.205 0.065-0.286 0.128l0.002-0.001c-0.111 0.060-0.141-0.175-0.141-0.175-0.035-0.001-0.068-0.006-0.1-0.013l0.004 0.001c-0.109-0.022-0.204-0.051-0.295-0.088l0.011 0.004c-0.237-0.096-0.127-0.241-0.127-0.241s-0.043 0.036-0.133 0.114c-0.031 0.032-0.064 0.061-0.099 0.089l-0.002 0.002c-0.073 0.116-0.201 0.193-0.346 0.193-0.001 0-0.001 0-0.002 0h0c-0.007-0-0.015-0.001-0.024-0.001-0.11 0-0.211 0.036-0.293 0.098l0.001-0.001c-0.121 0.124-0.224 0.267-0.304 0.424l-0.005 0.010c-2.123-0.717-3.915-1.494-5.629-2.399l0.206 0.099c-0.073-0.042-0.191-0.108-0.337-0.187v0c-0.249-0.144-0.581-0.337-0.934-0.566 0.248-1.264 0.667-2.389 1.238-3.418l-0.030 0.059c-0.009 0.018-0.017 0.030-0.022 0.042-2.068 0.030-3.409 0.421-3.612 1.18-0.47 1.758 5.351 4.852 13.002 6.91q1.307 0.334 2.554 0.614zM15.475 15.982c-0.033 0.032-0.053 0.076-0.053 0.125 0 0.005 0 0.009 0.001 0.014l-0-0.001c0.025 0.028 0.058 0.049 0.094 0.060l0.001 0c0.015 0.002 0.033 0.004 0.051 0.004 0.029 0 0.056-0.004 0.083-0.010l-0.002 0c0.025-0.006 0.060-0.018 0.091-0.024 0.104-0.030 0.042-0.084 0.060-0.156 0.010-0.091 0.031-0.175 0.062-0.253l-0.002 0.007c0.042-0.072-0.085-0.126-0.085-0.126s-0.098 0.138-0.134 0.193l-0.004 0.006c-0.042 0.067-0.098 0.121-0.164 0.161l-0.002 0.001zM15.649 15.41c0.085-0.005 0.159-0.046 0.208-0.108l0-0.001c0.030-0.084 0.020-0.042 0.053-0.138s-0.085 0.030-0.085 0.030l-0.138 0.084-0.037 0.084-0.025 0.054c0.008-0.001 0.016-0.003 0.023-0.006l-0.001 0z"></path>
</symbol>
<symbol id="icon-for" viewBox="0 0 32 32">
<path d="M31.43 8.881c0.331-0.065 0.577-0.352 0.577-0.697 0-0.235-0.114-0.444-0.291-0.573l-0.002-0.001c-0.859-0.627-1.962-1.242-2.789-1.058l1.715-4.269c0.032-0.078 0.051-0.169 0.051-0.264 0-0.392-0.318-0.71-0.71-0.71-0.095 0-0.186 0.019-0.269 0.053l0.005-0.002-4.271 1.715c0.184-0.828-0.433-1.928-1.058-2.785-0.131-0.178-0.339-0.292-0.573-0.292-0.344 0-0.631 0.245-0.696 0.571l-0.001 0.004c-0.395 1.777-0.931 3.334-1.617 4.808l0.060-0.143c0.484 0.312 0.904 0.653 1.284 1.034l2.882 2.88c0.383 0.381 0.725 0.801 1.021 1.254l0.018 0.030c1.331-0.627 2.889-1.162 4.512-1.526l0.154-0.029zM24.766 10.117l-2.881-2.885c-1.148-1.147-2.734-1.856-4.485-1.856-2.364 0-4.426 1.292-5.518 3.209l-0.016 0.031-3.165 5.623 3.434 5.659-4.935-2.992-6.961 12.381c-0.147 0.257-0.234 0.564-0.234 0.892 0 1 0.806 1.812 1.804 1.822h0.001c0.331-0.004 0.639-0.093 0.907-0.247l-0.009 0.005 5.411-3.039-1.816-3.37 3.988 2.152 11.12-6.25-3.052-5.327 6.078 3.483c1.344-1.172 2.188-2.886 2.188-4.798 0-1.753-0.71-3.341-1.858-4.491l0 0z"></path>
</symbol>
<symbol id="icon-first" viewBox="0 0 32 32">
<path d="M30.797 4.907c-0.337-0.426-0.853-0.697-1.433-0.699h-18.579c-0.001 0-0.002 0-0.003 0-1.007 0-1.824 0.817-1.824 1.824 0 0.2 0.032 0.393 0.092 0.573l-0.004-0.013 3.419 10.695c0.153 0.46 0.579 0.787 1.082 0.788h13.909c0.533-0.001 0.979-0.368 1.103-0.862l0.002-0.008 2.577-10.743c0.032-0.128 0.050-0.276 0.050-0.427 0-0.428-0.147-0.821-0.393-1.133l0.003 0.004zM30.358 20.097h-17.942c-0.002 0-0.004 0-0.006 0-0.644 0-1.189-0.418-1.381-0.997l-0.003-0.010-4.938-15.32c-0.463-1.414-1.771-2.418-3.313-2.418-0.002 0-0.005 0-0.007 0h-1.079c-0.92 0-1.665 0.745-1.665 1.665s0.745 1.665 1.665 1.665h1.080c0.071 0.001 0.131 0.046 0.154 0.109l0.001 0.001 4.939 15.32c0.638 1.94 2.433 3.316 4.549 3.316 0.003 0 0.005 0 0.008 0h17.941c0.919-0.001 1.664-0.746 1.664-1.665s-0.745-1.665-1.665-1.665c-0 0-0.001 0-0.001 0h0zM13.595 25.345c-1.464 0.001-2.651 1.187-2.651 2.652s1.187 2.652 2.652 2.652 2.652-1.187 2.652-2.652v0c0-0 0-0.001 0-0.001 0-1.464-1.187-2.651-2.651-2.651-0.001 0-0.001 0-0.001 0h0zM27.523 25.345c-1.464 0.001-2.651 1.187-2.651 2.652s1.187 2.652 2.652 2.652 2.652-1.187 2.652-2.652v0c0-0 0-0.001 0-0.001 0-1.464-1.187-2.651-2.651-2.651-0.001 0-0.001 0-0.001 0h0z"></path>
</symbol>
</defs>
</svg>
